<svg width="512" height="512" viewBox="0 0 512 512" fill="none" xmlns="http://www.w3.org/2000/svg">
	 <style>
    path { fill: #000000; stroke: #000000; }
    @media (prefers-color-scheme: dark) {
      path { fill: #ffffff; stroke: #ffffff; }
    }
  </style>
<path d="M462.287 206.661C462.265 206.522 462.235 206.383 462.197 206.247C454.816 174.329 439.908 144.64 418.717 119.656C418.427 119.165 418.055 118.727 417.619 118.36C398.315 95.8427 374.367 77.7706 347.418 65.385C320.469 52.9993 291.159 46.5936 261.5 46.6077H259.96H259.132H258.934C240.762 46.824 222.699 49.449 205.217 54.4141C204.002 54.8311 202.993 55.6963 202.396 56.8327C201.799 57.969 201.658 59.2907 202.004 60.5272C202.349 61.7638 203.153 62.8217 204.253 63.4846C205.352 64.1475 206.663 64.3652 207.918 64.0933C223.497 59.6887 239.563 57.2329 255.747 56.7821L260.789 69.5496C260.804 69.5999 260.825 69.6482 260.852 69.6937C268.205 86.7863 280.409 101.348 295.953 111.575C311.497 121.803 329.699 127.249 348.307 127.238C348.985 127.266 349.662 127.158 350.297 126.918C350.932 126.678 351.512 126.312 352.002 125.842C352.493 125.373 352.883 124.809 353.149 124.184C353.415 123.56 353.553 122.888 353.553 122.209C353.553 121.53 353.415 120.858 353.149 120.234C352.883 119.609 352.493 119.045 352.002 118.576C351.512 118.106 350.932 117.74 350.297 117.5C349.662 117.26 348.985 117.152 348.307 117.18C331.678 117.189 315.411 112.327 301.515 103.193C287.619 94.0592 276.704 81.0547 270.117 65.786L266.515 56.7821C318.157 58.1134 367.171 79.8424 402.834 117.216H381.351C380.673 117.188 379.996 117.296 379.361 117.536C378.725 117.776 378.145 118.142 377.655 118.612C377.165 119.081 376.775 119.645 376.509 120.27C376.242 120.894 376.105 121.566 376.105 122.245C376.105 122.924 376.242 123.596 376.509 124.22C376.775 124.845 377.165 125.409 377.655 125.878C378.145 126.348 378.725 126.714 379.361 126.954C379.996 127.194 380.673 127.302 381.351 127.274H411.865C430.188 149.209 443.481 174.893 450.807 202.519H409.236C401.868 202.493 394.662 204.679 388.549 208.793C382.437 212.907 377.699 218.761 374.949 225.596C372.956 230.579 369.512 234.849 365.063 237.851C360.614 240.853 355.366 242.45 349.999 242.434H340.905C332.281 242.424 323.764 244.35 315.983 248.069C308.202 251.789 301.356 257.208 295.948 263.927C290.54 270.645 286.71 278.492 284.739 286.888C282.767 295.284 282.706 304.016 284.559 312.439C287.431 325.259 294.569 336.724 304.805 344.959C315.041 353.194 327.768 357.712 340.905 357.774H375.3C375.979 357.802 376.656 357.694 377.291 357.454C377.926 357.214 378.506 356.848 378.996 356.378C379.486 355.909 379.876 355.345 380.143 354.72C380.409 354.096 380.546 353.424 380.546 352.745C380.546 352.066 380.409 351.394 380.143 350.77C379.876 350.145 379.486 349.581 378.996 349.112C378.506 348.642 377.926 348.276 377.291 348.036C376.656 347.796 375.979 347.688 375.3 347.716H340.905C330.06 347.666 319.552 343.936 311.102 337.137C302.652 330.337 296.761 320.871 294.391 310.287C292.871 303.335 292.928 296.13 294.558 289.203C296.189 282.276 299.352 275.802 303.814 270.258C308.277 264.714 313.925 260.241 320.344 257.168C326.763 254.095 333.789 252.5 340.905 252.5H349.999C357.373 252.522 364.583 250.329 370.695 246.205C376.807 242.08 381.539 236.215 384.277 229.369C386.273 224.386 389.719 220.117 394.169 217.115C398.619 214.113 403.868 212.516 409.236 212.532H453.229C462.816 258.611 455.483 306.602 432.574 347.716H405.563C404.884 347.688 404.207 347.796 403.572 348.036C402.937 348.276 402.357 348.642 401.867 349.112C401.377 349.581 400.987 350.145 400.72 350.77C400.454 351.394 400.316 352.066 400.316 352.745C400.316 353.424 400.454 354.096 400.72 354.72C400.987 355.345 401.377 355.909 401.867 356.378C402.357 356.848 402.937 357.214 403.572 357.454C404.207 357.694 404.884 357.802 405.563 357.774H426.614C408.918 385.527 384.514 408.372 355.655 424.201C326.797 440.029 294.414 448.329 261.5 448.335C189.343 448.335 126.189 409.105 92.2266 350.859H134.779C161.463 350.816 187.131 361.084 206.423 379.518L209.592 382.534C219.318 391.811 232.25 396.972 245.689 396.941H263.445C270.815 396.955 278.055 398.889 284.45 402.552C290.846 406.215 296.177 411.48 299.92 417.83C300.639 418.878 301.728 419.615 302.969 419.892C304.209 420.17 305.508 419.969 306.606 419.328C307.704 418.688 308.519 417.655 308.887 416.439C309.255 415.222 309.149 413.911 308.59 412.77C303.959 404.907 297.359 398.387 289.442 393.851C281.524 389.315 272.561 386.92 263.436 386.901H245.68C234.808 386.931 224.346 382.756 216.48 375.25L213.356 372.252C192.196 352.029 164.039 340.767 134.77 340.819H86.7342C69.9758 307.64 62.9886 270.383 66.5864 233.386C70.1842 196.389 84.2189 161.176 107.056 131.848H133.699C139.066 131.832 144.315 133.429 148.765 136.431C153.215 139.433 156.661 143.702 158.657 148.685C161.399 155.529 166.132 161.392 172.243 165.516C178.354 169.64 185.563 171.835 192.935 171.816H202.074C210.477 171.816 218.731 174.039 225.997 178.261C233.262 182.482 239.281 188.551 243.442 195.852C247.603 203.152 249.758 211.424 249.688 219.827C249.617 228.23 247.325 236.464 243.042 243.694C242.4 244.841 242.233 246.193 242.575 247.462C242.917 248.73 243.741 249.815 244.872 250.484C246.003 251.153 247.351 251.353 248.627 251.042C249.904 250.73 251.008 249.932 251.704 248.817C256.892 240.058 259.669 230.082 259.754 219.902C259.839 209.722 257.229 199.701 252.189 190.856C247.148 182.012 239.857 174.658 231.055 169.543C222.253 164.428 212.254 161.733 202.074 161.732H192.935C187.57 161.747 182.323 160.151 177.875 157.151C173.426 154.151 169.981 149.884 167.985 144.903C165.245 138.057 160.512 132.191 154.398 128.067C148.285 123.942 141.073 121.749 133.699 121.772H115.511C128.54 107.339 143.62 94.9007 160.269 84.8563C161.355 84.1403 162.122 83.0316 162.408 81.7627C162.695 80.4937 162.479 79.1632 161.806 78.0499C161.133 76.9367 160.055 76.1273 158.798 75.7915C157.541 75.4557 156.203 75.6195 155.065 76.2486C124.706 94.5679 99.5961 120.421 82.1704 151.302C64.7448 182.183 55.5948 217.042 55.6077 252.5C55.5689 285.593 63.5588 318.201 78.8918 347.527C79.0501 347.978 79.2747 348.403 79.5581 348.788C114.169 413.931 182.734 458.392 261.5 458.392C337.367 458.392 403.762 417.145 439.489 355.892C439.827 355.486 440.095 355.026 440.282 354.532C465.888 309.741 473.742 256.968 462.287 206.661Z" fill="white" stroke="white" stroke-width="8.5"/>
<path d="M83.6009 267.023C82.304 267.078 81.0785 267.632 80.1802 268.569C79.282 269.506 78.7805 270.754 78.7805 272.052C78.7805 273.35 79.282 274.598 80.1802 275.535C81.0785 276.472 82.304 277.026 83.6009 277.081H202.074C203.371 277.026 204.597 276.472 205.495 275.535C206.393 274.598 206.895 273.35 206.895 272.052C206.895 270.754 206.393 269.506 205.495 268.569C204.597 267.632 203.371 267.078 202.074 267.023H83.6009Z" fill="white" stroke="white" stroke-width="8.5"/>
</svg>
