<svg width="1197" height="339" viewBox="0 0 1197 339" fill="none" xmlns="http://www.w3.org/2000/svg">
<path d="M376.259 266.395C366.916 266.395 360.168 264.322 356.016 260.175C351.863 255.855 349.787 249.202 349.787 240.216V74.5874H376.518V244.363H392.609V266.395H376.259ZM459.507 269.506C450.856 269.506 443.07 268.123 436.149 265.359C429.402 262.594 423.519 258.36 418.501 252.658C413.657 246.955 409.937 239.698 407.342 230.885C404.746 221.899 403.449 211.272 403.449 199.003C403.449 186.735 404.746 176.194 407.342 167.381C409.937 158.395 413.657 151.051 418.501 145.349C423.519 139.647 429.402 135.413 436.149 132.648C443.07 129.883 450.856 128.501 459.507 128.501C467.985 128.501 475.684 129.883 482.605 132.648C489.525 135.413 495.408 139.647 500.253 145.349C505.27 151.051 509.077 158.395 511.672 167.381C514.267 176.194 515.565 186.735 515.565 199.003C515.565 211.272 514.267 221.899 511.672 230.885C509.077 239.698 505.27 246.955 500.253 252.658C495.408 258.36 489.525 262.594 482.605 265.359C475.684 268.123 467.985 269.506 459.507 269.506ZM459.507 247.215C468.504 247.215 475.338 244.536 480.009 239.179C484.854 233.823 487.276 225.701 487.276 214.815V183.192C487.276 172.306 484.854 164.184 480.009 158.827C475.338 153.471 468.504 150.792 459.507 150.792C450.51 150.792 443.589 153.471 438.745 158.827C434.073 164.184 431.737 172.306 431.737 183.192V214.815C431.737 225.701 434.073 233.823 438.745 239.179C443.589 244.536 450.51 247.215 459.507 247.215ZM584.562 269.506C566.914 269.506 553.333 263.89 543.816 252.658C534.3 241.426 529.542 223.541 529.542 199.003C529.542 174.466 534.3 156.581 543.816 145.349C553.333 134.117 566.914 128.501 584.562 128.501C597.539 128.501 607.92 131.525 615.706 137.573C623.491 143.448 629.115 151.311 632.575 161.16L610.515 171.528C608.958 164.789 606.103 159.691 601.951 156.235C597.971 152.607 592.175 150.792 584.562 150.792C566.741 150.792 557.831 161.592 557.831 183.192V214.815C557.831 236.415 566.741 247.215 584.562 247.215C592.348 247.215 598.404 245.4 602.729 241.771C607.228 237.97 610.688 232.44 613.11 225.183L633.354 236.328C629.374 246.869 623.318 255.077 615.187 260.952C607.228 266.655 597.02 269.506 584.562 269.506ZM738.97 266.395C732.396 266.395 727.292 264.581 723.658 260.952C720.026 257.323 718.209 251.621 718.209 243.845H715.095C713.191 251.967 709.212 258.274 703.156 262.767C697.274 267.259 690.007 269.506 681.356 269.506C668.553 269.506 658.95 266.136 652.548 259.397C646.32 252.485 643.205 242.808 643.205 230.367C643.205 216.888 647.531 206.607 656.182 199.522C664.833 192.437 677.55 188.895 694.332 188.895H716.652V175.935C716.652 167.295 714.749 160.987 710.942 157.013C707.136 152.866 701.08 150.792 692.775 150.792C686.374 150.792 680.837 152.175 676.165 154.939C671.667 157.704 667.515 162.37 663.708 168.936L647.877 154.421C652.375 146.818 658.431 140.597 666.044 135.759C673.83 130.92 683.346 128.501 694.592 128.501C710.856 128.501 723.053 132.475 731.185 140.424C739.317 148.2 743.382 159.691 743.382 174.898V244.363H756.099V266.395H738.97ZM690.18 248.77C693.986 248.77 697.447 248.165 700.561 246.955C703.848 245.746 706.617 244.104 708.866 242.031C711.288 239.957 713.191 237.538 714.576 234.773C715.96 231.835 716.652 228.725 716.652 225.442V206.779H695.63C678.847 206.779 670.456 212.827 670.456 224.923V231.144C670.456 237.192 672.186 241.685 675.646 244.623C679.28 247.387 684.124 248.77 690.18 248.77ZM802.576 266.395C793.233 266.395 786.486 264.322 782.333 260.175C778.181 255.855 776.105 249.202 776.105 240.216V74.5874H802.836V244.363H818.927V266.395H802.576ZM885.82 269.506C877.169 269.506 869.383 268.123 862.462 265.359C855.715 262.594 849.832 258.36 844.814 252.658C839.97 246.955 836.25 239.698 833.655 230.885C831.06 221.899 829.762 211.272 829.762 199.003C829.762 186.735 831.06 176.194 833.655 167.381C836.25 158.395 839.97 151.051 844.814 145.349C849.832 139.647 855.715 135.413 862.462 132.648C869.383 129.883 877.169 128.501 885.82 128.501C894.298 128.501 901.997 129.883 908.918 132.648C915.839 135.413 921.721 139.647 926.566 145.349C931.583 151.051 935.39 158.395 937.985 167.381C940.58 176.194 941.878 186.735 941.878 199.003C941.878 211.272 940.58 221.899 937.985 230.885C935.39 239.698 931.583 246.955 926.566 252.658C921.721 258.36 915.839 262.594 908.918 265.359C901.997 268.123 894.298 269.506 885.82 269.506ZM885.82 247.215C894.817 247.215 901.651 244.536 906.323 239.179C911.167 233.823 913.589 225.701 913.589 214.815V183.192C913.589 172.306 911.167 164.184 906.323 158.827C901.651 153.471 894.817 150.792 885.82 150.792C876.823 150.792 869.902 153.471 865.058 158.827C860.386 164.184 858.05 172.306 858.05 183.192V214.815C858.05 225.701 860.386 233.823 865.058 239.179C869.902 244.536 876.823 247.215 885.82 247.215ZM964.421 131.611H991.152V153.643H994.266C996.516 145.695 1000.5 139.56 1006.2 135.24C1012.09 130.747 1019.01 128.501 1026.97 128.501C1042.88 128.501 1054.74 134.635 1062.52 146.904C1070.48 159 1074.46 176.367 1074.46 199.003C1074.46 221.64 1070.48 239.093 1062.52 251.362C1054.74 263.458 1042.88 269.506 1026.97 269.506C1019.01 269.506 1012.09 267.346 1006.2 263.026C1000.5 258.533 996.516 252.312 994.266 244.363H991.152V318.235H964.421V131.611ZM1017.36 246.696C1026.53 246.696 1033.63 243.845 1038.65 238.143C1043.66 232.44 1046.17 224.405 1046.17 214.037V183.97C1046.17 173.602 1043.66 165.567 1038.65 159.864C1033.63 154.162 1026.53 151.311 1017.36 151.311C1009.75 151.311 1003.44 153.298 998.419 157.272C993.574 161.247 991.152 166.69 991.152 173.602V224.405C991.152 231.317 993.574 236.76 998.419 240.735C1003.44 244.709 1009.75 246.696 1017.36 246.696ZM1137.57 269.506C1126.32 269.506 1116.55 267.432 1108.24 263.285C1100.11 258.965 1093.02 252.744 1086.96 244.623L1104.09 228.811C1108.59 235.205 1113.52 240.043 1118.88 243.327C1124.25 246.437 1130.56 247.992 1137.83 247.992C1144.92 247.992 1150.37 246.437 1154.18 243.327C1157.99 240.043 1159.89 235.291 1159.89 229.071C1159.89 224.232 1158.68 220.344 1156.25 217.407C1153.83 214.469 1149.42 212.395 1143.02 211.186L1131.34 209.112C1117.67 206.693 1107.64 202.459 1101.23 196.411C1094.83 190.363 1091.63 181.378 1091.63 169.455C1091.63 155.458 1095.7 145.176 1103.83 138.61C1111.96 131.871 1123.12 128.501 1137.31 128.501C1147.69 128.501 1156.51 130.315 1163.78 133.944C1171.22 137.4 1177.71 142.498 1183.25 149.237L1167.16 165.048C1163.52 160.037 1159.11 156.322 1153.92 153.903C1148.9 151.311 1143.45 150.015 1137.57 150.015C1124.07 150.015 1117.33 156.149 1117.33 168.418C1117.33 173.775 1118.71 177.749 1121.48 180.341C1124.25 182.933 1128.66 184.747 1134.71 185.784L1146.65 188.117C1160.67 190.536 1170.62 194.856 1176.5 201.077C1182.55 207.125 1185.58 215.506 1185.58 226.219C1185.58 239.871 1181.43 250.498 1173.12 258.101C1164.82 265.704 1152.97 269.506 1137.57 269.506Z" fill="white"/>
<path d="M263.034 155.681C263.02 155.596 263.002 155.512 262.979 155.428C258.478 135.987 249.386 117.903 236.461 102.685C236.284 102.387 236.057 102.119 235.791 101.896C224.019 88.1802 209.413 77.1721 192.977 69.6281C176.542 62.0838 158.666 58.182 140.578 58.1906H139.639H139.133H139.013C127.929 58.3224 116.913 59.9213 106.252 62.9455C105.511 63.1995 104.896 63.7266 104.532 64.4187C104.167 65.1109 104.082 65.9159 104.292 66.6691C104.502 67.4223 104.993 68.0667 105.663 68.4705C106.334 68.8743 107.133 69.0069 107.899 68.8412C117.401 66.1584 127.198 64.6625 137.068 64.388L140.144 72.1645C140.153 72.1955 140.166 72.225 140.182 72.2524C144.667 82.6636 152.11 91.5333 161.59 97.7627C171.07 103.993 182.171 107.31 193.519 107.303C193.933 107.321 194.346 107.254 194.733 107.108C195.12 106.962 195.474 106.74 195.774 106.453C196.072 106.167 196.31 105.824 196.473 105.443C196.635 105.063 196.719 104.654 196.719 104.24C196.719 103.827 196.635 103.418 196.473 103.037C196.31 102.657 196.072 102.313 195.774 102.027C195.474 101.741 195.12 101.518 194.733 101.372C194.346 101.226 193.933 101.16 193.519 101.177C183.378 101.183 173.457 98.2206 164.982 92.6572C156.507 87.0937 149.85 79.1723 145.833 69.8723L143.637 64.388C175.132 65.1988 205.024 78.4343 226.775 101.199H213.672C213.259 101.181 212.846 101.247 212.458 101.394C212.071 101.54 211.717 101.763 211.419 102.049C211.12 102.335 210.882 102.679 210.72 103.059C210.557 103.439 210.473 103.849 210.473 104.262C210.473 104.675 210.557 105.085 210.72 105.465C210.882 105.845 211.12 106.189 211.419 106.475C211.717 106.761 212.071 106.984 212.458 107.131C212.846 107.276 213.259 107.342 213.672 107.325H232.283C243.458 120.686 251.564 136.331 256.032 153.158H230.679C226.185 153.142 221.791 154.473 218.063 156.979C214.334 159.485 211.445 163.051 209.768 167.215C208.552 170.249 206.452 172.85 203.739 174.679C201.025 176.508 197.825 177.48 194.552 177.47H189.006C183.746 177.464 178.552 178.637 173.806 180.903C169.06 183.169 164.885 186.47 161.587 190.562C158.289 194.655 155.953 199.434 154.75 204.548C153.548 209.662 153.511 214.981 154.641 220.112C156.392 227.92 160.746 234.903 166.988 239.919C173.231 244.936 180.994 247.688 189.006 247.725H209.982C210.396 247.742 210.809 247.676 211.196 247.531C211.584 247.384 211.937 247.161 212.236 246.875C212.536 246.589 212.773 246.245 212.936 245.865C213.098 245.485 213.181 245.075 213.181 244.662C213.181 244.249 213.098 243.839 212.936 243.459C212.773 243.079 212.536 242.735 212.236 242.449C211.937 242.163 211.584 241.94 211.196 241.794C210.809 241.647 210.396 241.581 209.982 241.599H189.006C182.391 241.568 175.982 239.297 170.829 235.155C165.676 231.013 162.083 225.247 160.637 218.8C159.71 214.566 159.745 210.177 160.74 205.958C161.734 201.739 163.663 197.795 166.384 194.418C169.106 191.042 172.551 188.317 176.465 186.445C180.38 184.573 184.665 183.602 189.006 183.602H194.552C199.049 183.615 203.446 182.279 207.173 179.767C210.901 177.255 213.787 173.682 215.457 169.512C216.674 166.477 218.776 163.877 221.49 162.049C224.204 160.22 227.405 159.247 230.679 159.256H257.509C263.356 187.324 258.884 216.555 244.912 241.599H228.439C228.025 241.581 227.612 241.647 227.225 241.794C226.838 241.94 226.484 242.163 226.185 242.449C225.886 242.735 225.648 243.079 225.485 243.459C225.323 243.839 225.239 244.249 225.239 244.662C225.239 245.075 225.323 245.485 225.485 245.865C225.648 246.245 225.886 246.589 226.185 246.875C226.484 247.161 226.838 247.384 227.225 247.531C227.612 247.676 228.025 247.742 228.439 247.725H241.277C230.485 264.63 215.602 278.545 198.001 288.186C180.401 297.828 160.652 302.883 140.578 302.887C96.5706 302.887 58.0543 278.992 37.3411 243.513H63.293C79.5665 243.487 95.2211 249.741 106.987 260.97L108.921 262.807C114.851 268.457 122.738 271.601 130.935 271.582H141.764C146.259 271.591 150.674 272.769 154.574 275C158.475 277.231 161.726 280.438 164.009 284.306C164.448 284.944 165.112 285.393 165.869 285.562C166.625 285.732 167.417 285.609 168.087 285.218C168.757 284.828 169.254 284.199 169.478 283.459C169.703 282.718 169.638 281.919 169.297 281.224C166.473 276.434 162.447 272.463 157.619 269.7C152.79 266.937 147.323 265.478 141.758 265.467H130.929C124.299 265.485 117.918 262.942 113.121 258.37L111.216 256.544C98.3109 244.226 81.1381 237.366 63.2875 237.398H33.9914C23.7708 217.188 19.5094 194.495 21.7036 171.959C23.8979 149.424 32.4574 127.975 46.3853 110.111H62.634C65.9078 110.102 69.109 111.075 71.8229 112.903C74.5367 114.732 76.6389 117.332 77.8558 120.367C79.5283 124.536 82.4148 128.107 86.1419 130.619C89.869 133.131 94.2651 134.468 98.7615 134.456H104.335C109.46 134.456 114.494 135.81 118.925 138.382C123.356 140.953 127.027 144.65 129.564 149.097C132.102 153.544 133.416 158.582 133.374 163.7C133.331 168.819 131.933 173.834 129.321 178.238C128.929 178.936 128.827 179.76 129.035 180.533C129.244 181.306 129.747 181.967 130.437 182.373C131.126 182.781 131.949 182.903 132.727 182.713C133.505 182.524 134.179 182.037 134.603 181.359C137.767 176.023 139.461 169.947 139.513 163.746C139.565 157.546 137.973 151.442 134.899 146.054C131.825 140.667 127.378 136.188 122.01 133.071C116.641 129.956 110.544 128.314 104.335 128.314H98.7615C95.4892 128.323 92.2891 127.351 89.5763 125.524C86.8635 123.696 84.7621 121.097 83.5452 118.064C81.8734 113.893 78.9869 110.32 75.2583 107.808C71.5298 105.296 67.1317 103.96 62.634 103.974H51.5416C59.4877 95.1829 68.6852 87.6064 78.8391 81.4885C79.5016 81.0522 79.9688 80.3769 80.1439 79.6036C80.3184 78.831 80.1865 78.0203 79.7763 77.3421C79.3661 76.6645 78.7086 76.1713 77.9416 75.9669C77.1752 75.7624 76.3592 75.8617 75.6649 76.2455C57.1496 87.4033 41.8356 103.151 31.2081 121.961C20.5805 140.77 15 162.004 15.0079 183.602C14.9843 203.759 19.8572 223.621 29.2085 241.484C29.305 241.758 29.442 242.018 29.6148 242.252C50.7234 281.931 92.54 309.013 140.578 309.013C186.847 309.013 227.34 283.889 249.13 246.579C249.336 246.332 249.499 246.052 249.613 245.751C265.23 218.468 270.019 186.323 263.034 155.681Z" fill="white" stroke="white" stroke-width="7.2"/>
<path d="M32.0805 192.446C31.2895 192.48 30.5421 192.816 29.9943 193.387C29.4465 193.958 29.1406 194.719 29.1406 195.509C29.1406 196.3 29.4465 197.06 29.9943 197.63C30.5421 198.201 31.2895 198.538 32.0805 198.572H104.335C105.126 198.538 105.874 198.201 106.422 197.63C106.969 197.06 107.275 196.3 107.275 195.509C107.275 194.719 106.969 193.958 106.422 193.387C105.874 192.816 105.126 192.48 104.335 192.446H32.0805Z" fill="white" stroke="white" stroke-width="7.2"/>
</svg>
