<svg width="167" height="47" viewBox="0 0 167 47" fill="none" xmlns="http://www.w3.org/2000/svg">
<path d="M52.5954 37C51.2978 37 50.3606 36.712 49.7839 36.136C49.2071 35.536 48.9188 34.612 48.9188 33.364V10.36H52.6314V33.94H54.8663V37H52.5954ZM64.1576 37.432C62.9561 37.432 61.8747 37.24 60.9135 36.856C59.9763 36.472 59.1593 35.884 58.4624 35.092C57.7896 34.3 57.2729 33.292 56.9125 32.068C56.552 30.82 56.3718 29.344 56.3718 27.64C56.3718 25.936 56.552 24.472 56.9125 23.248C57.2729 22 57.7896 20.98 58.4624 20.188C59.1593 19.396 59.9763 18.808 60.9135 18.424C61.8747 18.04 62.9561 17.848 64.1576 17.848C65.3351 17.848 66.4044 18.04 67.3657 18.424C68.3269 18.808 69.1439 19.396 69.8167 20.188C70.5136 20.98 71.0423 22 71.4027 23.248C71.7632 24.472 71.9434 25.936 71.9434 27.64C71.9434 29.344 71.7632 30.82 71.4027 32.068C71.0423 33.292 70.5136 34.3 69.8167 35.092C69.1439 35.884 68.3269 36.472 67.3657 36.856C66.4044 37.24 65.3351 37.432 64.1576 37.432ZM64.1576 34.336C65.4072 34.336 66.3564 33.964 67.0052 33.22C67.678 32.476 68.0145 31.348 68.0145 29.836V25.444C68.0145 23.932 67.678 22.804 67.0052 22.06C66.3564 21.316 65.4072 20.944 64.1576 20.944C62.908 20.944 61.9468 21.316 61.274 22.06C60.6251 22.804 60.3007 23.932 60.3007 25.444V29.836C60.3007 31.348 60.6251 32.476 61.274 33.22C61.9468 33.964 62.908 34.336 64.1576 34.336ZM81.5264 37.432C79.0753 37.432 77.189 36.652 75.8673 35.092C74.5456 33.532 73.8848 31.048 73.8848 27.64C73.8848 24.232 74.5456 21.748 75.8673 20.188C77.189 18.628 79.0753 17.848 81.5264 17.848C83.3287 17.848 84.7705 18.268 85.8519 19.108C86.9333 19.924 87.7142 21.016 88.1948 22.384L85.131 23.824C84.9147 22.888 84.5182 22.18 83.9415 21.7C83.3888 21.196 82.5838 20.944 81.5264 20.944C79.0513 20.944 77.8137 22.444 77.8137 25.444V29.836C77.8137 32.836 79.0513 34.336 81.5264 34.336C82.6078 34.336 83.4489 34.084 84.0496 33.58C84.6744 33.052 85.155 32.284 85.4914 31.276L88.303 32.824C87.7503 34.288 86.9092 35.428 85.7798 36.244C84.6744 37.036 83.2566 37.432 81.5264 37.432ZM102.972 37C102.059 37 101.35 36.748 100.845 36.244C100.341 35.74 100.088 34.948 100.088 33.868H99.6559C99.3916 34.996 98.8389 35.872 97.9978 36.496C97.1808 37.12 96.1715 37.432 94.97 37.432C93.1918 37.432 91.8581 36.964 90.9689 36.028C90.1039 35.068 89.6713 33.724 89.6713 31.996C89.6713 30.124 90.2721 28.696 91.4736 27.712C92.6751 26.728 94.4413 26.236 96.7723 26.236H99.8722V24.436C99.8722 23.236 99.6079 22.36 99.0792 21.808C98.5505 21.232 97.7095 20.944 96.556 20.944C95.6669 20.944 94.8979 21.136 94.2491 21.52C93.6243 21.904 93.0476 22.552 92.5189 23.464L90.3201 21.448C90.9449 20.392 91.786 19.528 92.8433 18.856C93.9247 18.184 95.2463 17.848 96.8083 17.848C99.0672 17.848 100.761 18.4 101.891 19.504C103.02 20.584 103.585 22.18 103.585 24.292V33.94H105.351V37H102.972ZM96.1955 34.552C96.7242 34.552 97.2048 34.468 97.6374 34.3C98.0939 34.132 98.4784 33.904 98.7908 33.616C99.1273 33.328 99.3916 32.992 99.5838 32.608C99.7761 32.2 99.8722 31.768 99.8722 31.312V28.72H96.9525C94.6216 28.72 93.4561 29.56 93.4561 31.24V32.104C93.4561 32.944 93.6964 33.568 94.177 33.976C94.6816 34.36 95.3545 34.552 96.1955 34.552ZM111.806 37C110.509 37 109.571 36.712 108.995 36.136C108.418 35.536 108.13 34.612 108.13 33.364V10.36H111.842V33.94H114.077V37H111.806ZM123.368 37.432C122.166 37.432 121.085 37.24 120.124 36.856C119.186 36.472 118.369 35.884 117.673 35.092C117 34.3 116.483 33.292 116.123 32.068C115.762 30.82 115.582 29.344 115.582 27.64C115.582 25.936 115.762 24.472 116.123 23.248C116.483 22 117 20.98 117.673 20.188C118.369 19.396 119.186 18.808 120.124 18.424C121.085 18.04 122.166 17.848 123.368 17.848C124.545 17.848 125.615 18.04 126.576 18.424C127.537 18.808 128.354 19.396 129.027 20.188C129.724 20.98 130.252 22 130.613 23.248C130.973 24.472 131.154 25.936 131.154 27.64C131.154 29.344 130.973 30.82 130.613 32.068C130.252 33.292 129.724 34.3 129.027 35.092C128.354 35.884 127.537 36.472 126.576 36.856C125.615 37.24 124.545 37.432 123.368 37.432ZM123.368 34.336C124.617 34.336 125.567 33.964 126.215 33.22C126.888 32.476 127.225 31.348 127.225 29.836V25.444C127.225 23.932 126.888 22.804 126.215 22.06C125.567 21.316 124.617 20.944 123.368 20.944C122.118 20.944 121.157 21.316 120.484 22.06C119.835 22.804 119.511 23.932 119.511 25.444V29.836C119.511 31.348 119.835 32.476 120.484 33.22C121.157 33.964 122.118 34.336 123.368 34.336ZM134.285 18.28H137.997V21.34H138.43C138.742 20.236 139.295 19.384 140.088 18.784C140.905 18.16 141.866 17.848 142.971 17.848C145.182 17.848 146.828 18.7 147.91 20.404C149.015 22.084 149.568 24.496 149.568 27.64C149.568 30.784 149.015 33.208 147.91 34.912C146.828 36.592 145.182 37.432 142.971 37.432C141.866 37.432 140.905 37.132 140.088 36.532C139.295 35.908 138.742 35.044 138.43 33.94H137.997V44.2H134.285V18.28ZM141.638 34.264C142.911 34.264 143.897 33.868 144.594 33.076C145.29 32.284 145.639 31.168 145.639 29.728V25.552C145.639 24.112 145.29 22.996 144.594 22.204C143.897 21.412 142.911 21.016 141.638 21.016C140.58 21.016 139.703 21.292 139.007 21.844C138.334 22.396 137.997 23.152 137.997 24.112V31.168C137.997 32.128 138.334 32.884 139.007 33.436C139.703 33.988 140.58 34.264 141.638 34.264ZM158.333 37.432C156.771 37.432 155.413 37.144 154.26 36.568C153.13 35.968 152.145 35.104 151.304 33.976L153.683 31.78C154.308 32.668 154.993 33.34 155.738 33.796C156.483 34.228 157.36 34.444 158.369 34.444C159.354 34.444 160.111 34.228 160.64 33.796C161.168 33.34 161.433 32.68 161.433 31.816C161.433 31.144 161.265 30.604 160.928 30.196C160.592 29.788 159.979 29.5 159.09 29.332L157.468 29.044C155.569 28.708 154.176 28.12 153.287 27.28C152.397 26.44 151.953 25.192 151.953 23.536C151.953 21.592 152.518 20.164 153.647 19.252C154.776 18.316 156.326 17.848 158.297 17.848C159.739 17.848 160.964 18.1 161.973 18.604C163.007 19.084 163.908 19.792 164.677 20.728L162.442 22.924C161.937 22.228 161.325 21.712 160.604 21.376C159.907 21.016 159.15 20.836 158.333 20.836C156.459 20.836 155.521 21.688 155.521 23.392C155.521 24.136 155.714 24.688 156.098 25.048C156.483 25.408 157.095 25.66 157.936 25.804L159.594 26.128C161.541 26.464 162.923 27.064 163.74 27.928C164.581 28.768 165.001 29.932 165.001 31.42C165.001 33.316 164.425 34.792 163.271 35.848C162.118 36.904 160.472 37.432 158.333 37.432Z" fill="black"/>
<path d="M36.8696 21.6221C36.8677 21.6103 36.8652 21.5986 36.862 21.587C36.2368 18.8869 34.974 16.3752 33.179 14.2616C33.1544 14.2201 33.1229 14.183 33.0859 14.1519C31.4509 12.247 29.4223 10.7181 27.1395 9.6703C24.8569 8.62249 22.3741 8.08057 19.8619 8.08176H19.7314H19.6612H19.6445C18.1051 8.10007 16.5751 8.32214 15.0943 8.74217C14.9915 8.77745 14.906 8.85065 14.8554 8.94678C14.8048 9.04292 14.793 9.15473 14.8222 9.25934C14.8513 9.36395 14.9195 9.45345 15.0126 9.50953C15.1057 9.56561 15.2168 9.58403 15.3231 9.56102C16.6428 9.1884 18.0036 8.98064 19.3744 8.94251L19.8016 10.0226C19.8029 10.0269 19.8047 10.031 19.8069 10.0348C20.4298 11.4808 21.4636 12.7127 22.7802 13.5779C24.0969 14.4432 25.6387 14.9039 27.2148 14.903C27.2723 14.9054 27.3297 14.8962 27.3834 14.8759C27.4372 14.8556 27.4864 14.8247 27.5279 14.7849C27.5694 14.7452 27.6024 14.6975 27.6251 14.6446C27.6476 14.5918 27.6592 14.535 27.6592 14.4775C27.6592 14.4201 27.6476 14.3633 27.6251 14.3104C27.6024 14.2576 27.5694 14.2099 27.5279 14.1702C27.4864 14.1304 27.4372 14.0995 27.3834 14.0792C27.3297 14.0589 27.2723 14.0497 27.2148 14.0521C25.8063 14.0529 24.4284 13.6415 23.2513 12.8688C22.0742 12.0961 21.1497 10.9959 20.5917 9.70422L20.2867 8.94251C24.661 9.05513 28.8128 10.8934 31.8337 14.0552H30.0139C29.9564 14.0527 29.8991 14.0619 29.8453 14.0822C29.7915 14.1025 29.7423 14.1335 29.7009 14.1732C29.6593 14.2129 29.6263 14.2607 29.6038 14.3135C29.5811 14.3663 29.5695 14.4232 29.5695 14.4806C29.5695 14.538 29.5811 14.5949 29.6038 14.6477C29.6263 14.7005 29.6593 14.7482 29.7009 14.788C29.7423 14.8277 29.7915 14.8587 29.8453 14.879C29.8991 14.8992 29.9564 14.9084 30.0139 14.906H32.5986C34.1507 16.7617 35.2766 18.9346 35.8972 21.2717H32.376C31.7518 21.2695 31.1414 21.4544 30.6236 21.8024C30.1058 22.1505 29.7046 22.6457 29.4716 23.224C29.3028 23.6455 29.011 24.0067 28.6342 24.2607C28.2574 24.5147 27.8128 24.6497 27.3582 24.6484H26.5879C25.8574 24.6475 25.136 24.8105 24.4769 25.1252C23.8177 25.4399 23.2378 25.8983 22.7797 26.4667C22.3218 27.0351 21.9972 27.6989 21.8302 28.4092C21.6633 29.1195 21.6581 29.8582 21.815 30.5708C22.0583 31.6553 22.663 32.6252 23.53 33.3219C24.397 34.0186 25.4751 34.4008 26.5879 34.406H29.5013C29.5588 34.4084 29.6162 34.3992 29.6699 34.379C29.7238 34.3587 29.7729 34.3277 29.8144 34.288C29.856 34.2482 29.889 34.2005 29.9115 34.1477C29.9341 34.0949 29.9457 34.038 29.9457 33.9806C29.9457 33.9232 29.9341 33.8663 29.9115 33.8135C29.889 33.7607 29.856 33.7129 29.8144 33.6732C29.7729 33.6335 29.7238 33.6025 29.6699 33.5822C29.6162 33.5619 29.5588 33.5527 29.5013 33.5552H26.5879C25.6692 33.5509 24.7792 33.2354 24.0635 32.6602C23.3477 32.0849 22.8486 31.2841 22.6479 30.3887C22.5191 29.8006 22.5239 29.191 22.6621 28.605C22.8002 28.019 23.0681 27.4713 23.4461 27.0023C23.8241 26.5333 24.3026 26.1549 24.8462 25.8949C25.3899 25.6349 25.9851 25.5 26.5879 25.5H27.3582C27.9828 25.5019 28.5935 25.3163 29.1112 24.9674C29.629 24.6185 30.0298 24.1223 30.2618 23.5431C30.4308 23.1216 30.7228 22.7604 31.0996 22.5065C31.4766 22.2525 31.9212 22.1174 32.376 22.1187H36.1024C36.9144 26.017 36.2933 30.0769 34.3528 33.5552H32.0648C32.0073 33.5527 31.9499 33.5619 31.8961 33.5822C31.8424 33.6025 31.7932 33.6335 31.7517 33.6732C31.7102 33.7129 31.6772 33.7607 31.6545 33.8135C31.632 33.8663 31.6204 33.9232 31.6204 33.9806C31.6204 34.038 31.632 34.0949 31.6545 34.1477C31.6772 34.2005 31.7102 34.2482 31.7517 34.288C31.7932 34.3277 31.8424 34.3587 31.8961 34.379C31.9499 34.3992 32.0073 34.4084 32.0648 34.406H33.8479C32.3489 36.7539 30.2818 38.6866 27.8373 40.0256C25.3928 41.3647 22.6499 42.0669 19.8619 42.0674C13.7497 42.0674 8.40025 38.7486 5.52341 33.821H9.12785C11.3881 33.8174 13.5623 34.686 15.1965 36.2456L15.465 36.5007C16.2887 37.2855 17.3841 37.7221 18.5226 37.7195H20.0266C20.6509 37.7207 21.2641 37.8843 21.8058 38.1942C22.3476 38.5041 22.7992 38.9495 23.1162 39.4867C23.1771 39.5753 23.2694 39.6377 23.3745 39.6612C23.4795 39.6847 23.5896 39.6676 23.6826 39.6134C23.7756 39.5592 23.8446 39.4719 23.8757 39.369C23.907 39.2661 23.8979 39.1552 23.8507 39.0586C23.4584 38.3934 22.8993 37.8418 22.2286 37.4581C21.558 37.0744 20.7987 36.8717 20.0258 36.8702H18.5218C17.6009 36.8727 16.7147 36.5195 16.0484 35.8845L15.7838 35.6309C13.9914 33.92 11.6063 32.9673 9.12709 32.9717H5.05818C3.63865 30.1648 3.04679 27.0129 3.35155 23.883C3.6563 20.7531 4.84512 17.7741 6.77955 15.293H9.03632C9.49102 15.2917 9.93562 15.4268 10.3126 15.6807C10.6895 15.9347 10.9814 16.2958 11.1505 16.7174C11.3827 17.2964 11.7837 17.7924 12.3013 18.1413C12.819 18.4901 13.4295 18.6758 14.054 18.6742H14.8281C15.5399 18.6742 16.2391 18.8623 16.8545 19.2194C17.4699 19.5766 17.9798 20.09 18.3322 20.7076C18.6847 21.3253 18.8672 22.025 18.8613 22.7359C18.8553 23.4468 18.6611 24.1434 18.2984 24.755C18.244 24.852 18.2298 24.9664 18.2587 25.0738C18.2877 25.1811 18.3576 25.2729 18.4534 25.3294C18.5491 25.386 18.6633 25.403 18.7715 25.3766C18.8795 25.3503 18.9731 25.2827 19.032 25.1885C19.4715 24.4474 19.7068 23.6035 19.714 22.7423C19.7212 21.8811 19.5001 21.0333 19.0731 20.285C18.6461 19.5368 18.0285 18.9147 17.283 18.4819C16.5374 18.0492 15.6905 17.8212 14.8281 17.8211H14.054C13.5995 17.8224 13.1551 17.6874 12.7783 17.4336C12.4015 17.1798 12.1097 16.8188 11.9407 16.3975C11.7085 15.8182 11.3076 15.322 10.7897 14.9731C10.2718 14.6242 9.66099 14.4387 9.03632 14.4406H7.49571C8.59933 13.2196 9.87676 12.1673 11.287 11.3176C11.379 11.257 11.4439 11.1632 11.4683 11.0558C11.4925 10.9485 11.4742 10.8359 11.4172 10.7417C11.3602 10.6476 11.2689 10.5791 11.1624 10.5507C11.0559 10.5223 10.9426 10.5361 10.8462 10.5894C8.27459 12.1391 6.14765 14.3263 4.6716 16.9388C3.19555 19.5512 2.42049 22.5003 2.42158 25.5C2.41831 28.2996 3.09509 31.0582 4.39388 33.5392C4.40729 33.5773 4.42631 33.6133 4.45032 33.6458C7.38206 39.1569 13.1899 42.9182 19.8619 42.9182C26.2882 42.9182 31.9122 39.4288 34.9385 34.2468C34.9671 34.2125 34.9899 34.1736 35.0057 34.1318C37.1746 30.3425 37.8399 25.8779 36.8696 21.6221Z" fill="black" stroke="black" stroke-width="1.5"/>
<path d="M4.79284 26.7287C4.68298 26.7333 4.57918 26.7801 4.50309 26.8594C4.42701 26.9387 4.38452 27.0443 4.38452 27.1541C4.38452 27.2639 4.42701 27.3695 4.50309 27.4487C4.57918 27.528 4.68298 27.5748 4.79284 27.5795H14.8282C14.9381 27.5748 15.0419 27.528 15.118 27.4487C15.1941 27.3695 15.2365 27.2639 15.2365 27.1541C15.2365 27.0443 15.1941 26.9387 15.118 26.8594C15.0419 26.7801 14.9381 26.7333 14.8282 26.7287H4.79284Z" fill="black" stroke="black" stroke-width="1.5"/>
</svg>
